<svg width="13" height="13" viewBox="0 0 13 13" fill="none" xmlns="http://www.w3.org/2000/svg">
<path d="M10.8393 1.8676C10.754 0.837791 9.84393 0 8.81055 0H6.5L3.96094 9.95312H11.5094L10.8393 1.8676Z" fill="#FF1B10"/>
<path d="M4.18945 0C3.15607 0 2.24597 0.837791 2.16068 1.8676L1.4906 9.95312H6.49999V0H4.18945Z" fill="#FF451B"/>
<path d="M6.88086 5.38281H6.5L6.11914 10.334H6.88086V5.38281Z" fill="#FF6523"/>
<path d="M6.11914 5.38281H6.5V10.334H6.11914V5.38281Z" fill="#FF852B"/>
<path d="M4.18945 3.09766V7.66797C5.45155 7.66797 6.47461 6.64491 6.47461 5.38281C6.47461 4.12072 5.45155 3.09766 4.18945 3.09766Z" fill="#FF6523"/>
<path d="M6.47461 5.38281C6.47461 6.64491 7.49767 7.66797 8.75977 7.66797V3.09766C7.49767 3.09766 6.47461 4.12072 6.47461 5.38281Z" fill="#FF451B"/>
<path d="M11.0957 9.19141H6.5L5.48438 12.1113L13 11.0957C13 10.0457 12.1457 9.19141 11.0957 9.19141Z" fill="#3C4047"/>
<path d="M6.5 9.19141H1.9043C0.854256 9.19141 0 10.0457 0 11.0957L6.5 12.1113V9.19141Z" fill="#50545B"/>
<path d="M6.5 13H13V11.0957H6.5L5.48438 12.0479L6.5 13Z" fill="black"/>
<path d="M0 11.0957H6.5V13H0V11.0957Z" fill="#3C4047"/>
</svg>
