<svg width="16" height="16" viewBox="0 0 16 16" fill="none" xmlns="http://www.w3.org/2000/svg">
<path d="M7.99988 0V16C12.4183 16 16 12.4183 16 8.00012C16 3.58144 12.4183 0 7.99988 0Z" fill="#252F6B"/>
<path d="M7.99988 0C3.58172 0 0 3.58158 0 7.99998C0 12.4181 3.58172 15.9999 7.99988 15.9999C12.4183 15.9999 12.4183 0 7.99988 0Z" fill="#273375"/>
<path d="M5.4864 12.2635L6.02588 11.5909L5.19247 11.7419L4.90332 10.9346L4.58905 11.7419L3.73817 11.5909L4.27893 12.2487L3.71747 12.9057L4.57324 12.7712L4.86188 13.5619L5.17629 12.7716L6.04912 12.9276L5.4864 12.2635Z" fill="#F3F4F5"/>
<path d="M11.8631 12.8575L12.1691 12.4764L11.6966 12.5619L11.5328 12.1045L11.3547 12.5619L10.8726 12.4764L11.179 12.8489L10.8609 13.2214L11.3458 13.1451L11.5093 13.5929L11.6874 13.1454L12.1821 13.2338L11.8631 12.8575Z" fill="#F3F4F5"/>
<path d="M11.8631 4.43638L12.1691 4.05516L11.6966 4.14079L11.5328 3.6834L11.3547 4.14079L10.8726 4.05516L11.179 4.42791L10.8609 4.80018L11.3458 4.72401L11.5093 5.17205L11.6874 4.72425L12.1821 4.81254L11.8631 4.43638Z" fill="#F3F4F5"/>
<path d="M13.8422 6.6148L14.1479 6.23358L13.6758 6.31924L13.5119 5.86185L13.3338 6.31924L12.8514 6.23358L13.1578 6.60635L12.8398 6.97873L13.3246 6.90242L13.4882 7.35049L13.6663 6.90269L14.1609 6.99099L13.8422 6.6148Z" fill="#F3F4F5"/>
<path d="M10.1511 7.58331L10.457 7.20219L9.98463 7.28785L9.82077 6.83046L9.64269 7.28785L9.16064 7.20219L9.46697 7.5747L9.14902 7.9472L9.63384 7.87103L9.79743 8.3187L9.97551 7.8713L10.4702 7.9596L10.1511 7.58331Z" fill="#F3F4F5"/>
<path d="M1.68014 3.0979C1.55458 3.2597 1.4347 3.42582 1.32141 3.59697H2.17897L1.68014 3.0979Z" fill="#29337A"/>
<path d="M5.81134 7.99996H6.58199L5.81134 7.22931V7.99996Z" fill="#29337A"/>
<path d="M3.2568 1.55835C3.07325 1.69377 2.89656 1.83739 2.7254 1.98757L3.2568 2.51873V1.55835Z" fill="#29337A"/>
<path d="M2.48593 8H3.25682V7.22911L2.48593 8Z" fill="#29337A"/>
<path d="M7.99989 0C7.24073 0 6.50734 0.107989 5.81134 0.305694V2.51875L8.00012 0.330048V0H7.99989Z" fill="#29337A"/>
<path d="M8.00012 7.26246V6.15176H6.8894L8.00012 7.26246Z" fill="#29337A"/>
<path d="M0.330081 8.00001L2.1787 6.15176H0.217127C0.0765416 6.74532 0 7.36363 0 8.00001H0.330081Z" fill="#29337A"/>
<path d="M6.8887 3.59698H8.00014V2.48578L6.8887 3.59698Z" fill="#29337A"/>
<path d="M8.00014 7.49578V7.26247L6.88944 6.15177H8.00014V5.754H6.25836L8.00014 7.49578Z" fill="white"/>
<path d="M2.17899 3.597H1.32143C1.2358 3.72675 1.15443 3.85949 1.07623 3.9944H2.76092L1.76099 2.99474C1.73359 3.02885 1.70667 3.06334 1.68002 3.09779L2.17899 3.597Z" fill="white"/>
<path d="M3.25682 7.22912V8.00001H3.65435V6.64719L2.30164 8.00001H2.48593L3.25682 7.22912Z" fill="white"/>
<path d="M5.81134 0.305573C5.67731 0.343607 5.54493 0.385019 5.41394 0.429606V3.10069L8.00014 0.514626V0.330332L5.81134 2.51863V0.305573Z" fill="white"/>
<path d="M3.24279 6.15174L3.25681 6.13772L3.64043 5.7541H0.32198C0.28371 5.88533 0.248715 6.01785 0.217133 6.15174H2.17871L0.330087 7.99999H1.39444L3.24279 6.15174Z" fill="white"/>
<path d="M0.330078 8.00001L2.17869 6.15176L0.330078 8.00001Z" fill="white"/>
<path d="M8.00009 3.99453V3.597H6.88865L8.00009 2.48579V1.42171L5.42715 3.99453H8.00009Z" fill="white"/>
<path d="M8.0001 2.48578L6.88861 3.59698L8.0001 2.48578Z" fill="white"/>
<path d="M3.25683 2.51891L2.72543 1.98774C2.53698 2.15336 2.35607 2.32765 2.1839 2.51033L3.25683 3.58326L3.26822 3.59488L3.65437 3.98103V1.28455C3.51922 1.37234 3.3862 1.4629 3.25697 1.55839V2.51891H3.25683Z" fill="white"/>
<path d="M5.81132 7.22937L6.58198 8.00003H7.59732L5.41379 5.81667V8.00003H5.81132V7.22937Z" fill="white"/>
<path d="M3.25681 3.58325L3.26819 3.59487L3.25681 3.58325Z" fill="#D32030"/>
<path d="M6.65576 6.15177L6.25836 5.75413H8.00013V3.99455H5.42721L5.41393 4.00806V3.99455H5.42721L8.00013 1.42185V0.514634L5.4138 3.10084V0.429749C4.78866 0.643363 4.19876 0.931594 3.65422 1.28464V3.981L3.668 3.99451H3.65422V3.981L3.26807 3.59488L3.27033 3.59715H3.25682V3.58336L2.18388 2.51043C2.03661 2.66631 1.89552 2.82774 1.76098 2.99498L2.76089 3.99465H1.07623C0.7579 4.54338 0.50338 5.13301 0.321991 5.75423H3.64044L3.65422 5.74021V5.75423H3.64044L3.25682 6.13789V6.1519H3.2428L1.39442 8.00005H2.30164L3.65435 6.6472V8.00005H5.41393V5.81665L7.59733 8.00005H7.89758C7.9318 7.96432 7.96669 7.92881 8.00027 7.89206V7.49578L6.65576 6.15177Z" fill="#D32030"/>
<path d="M5.41379 3.10083L8.00012 0.514633L5.41379 3.10083Z" fill="#D32030"/>
<path d="M3.25685 6.15177V6.13762L3.24283 6.15177H3.25685Z" fill="#D32030"/>
<path d="M3.65439 5.73994L3.6405 5.75396H3.65439V5.73994Z" fill="#D32030"/>
<path d="M5.41379 4.00804L5.4272 3.99454H5.41379V4.00804Z" fill="#D32030"/>
<path d="M3.25681 3.597H3.27045L3.26819 3.59487L3.25681 3.58325V3.597Z" fill="#D32030"/>
<path d="M3.66811 3.99456L3.65436 3.98091V3.99456H3.66811Z" fill="#D32030"/>
</svg>
