<svg width="16" height="16" viewBox="0 0 16 16" fill="none" xmlns="http://www.w3.org/2000/svg">
<path d="M8 16C12.4183 16 16 12.4183 16 8C16 3.58172 12.4183 0 8 0C3.58172 0 0 3.58172 0 8C0 12.4183 3.58172 16 8 16Z" fill="#6DA544"/>
<path d="M8.00001 3.13043L14.6087 7.99999L8.00001 12.8696L1.39133 7.99999L8.00001 3.13043Z" fill="#FFDA44"/>
<path d="M7.99997 10.7826C9.53675 10.7826 10.7826 9.53679 10.7826 8C10.7826 6.46322 9.53675 5.21741 7.99997 5.21741C6.46319 5.21741 5.21738 6.46322 5.21738 8C5.21738 9.53679 6.46319 10.7826 7.99997 10.7826Z" fill="#F0F0F0"/>
<path d="M6.60869 7.82611C6.12482 7.82611 5.65785 7.8997 5.21829 8.03627C5.23776 9.55627 6.47538 10.7826 8 10.7826C8.94275 10.7826 9.77537 10.3134 10.2787 9.59614C9.41756 8.51811 8.09253 7.82611 6.60869 7.82611Z" fill="#0052B4"/>
<path d="M10.731 8.53313C10.7645 8.3605 10.7826 8.18241 10.7826 8C10.7826 6.46319 9.53676 5.21741 7.99999 5.21741C6.8533 5.21741 5.86893 5.91119 5.44293 6.90175C5.81949 6.82372 6.20937 6.78263 6.60871 6.78263C8.22486 6.78259 9.68692 7.45441 10.731 8.53313Z" fill="#0052B4"/>
</svg>
