<svg width="16" height="16" viewBox="0 0 16 16" fill="none" xmlns="http://www.w3.org/2000/svg">
<path d="M8 16C12.4183 16 16 12.4183 16 8C16 3.58172 12.4183 0 8 0C3.58172 0 0 3.58172 0 8C0 12.4183 3.58172 16 8 16Z" fill="#F0F0F0"/>
<path d="M16 7.99998C16 4.82829 14.1542 2.08779 11.4783 0.793793V15.2061C14.1542 13.9122 16 11.1717 16 7.99998Z" fill="#D80027"/>
<path d="M0 7.99998C0 11.1717 1.84578 13.9122 4.52175 15.2062V0.793793C1.84578 2.08779 0 4.82829 0 7.99998Z" fill="#D80027"/>
<path d="M9.39128 9.04344L10.7826 8.34778L10.0869 7.99997V7.30431L8.69563 7.99997L9.39128 6.60865H8.69563L7.99997 5.56519L7.30431 6.60865H6.60866L7.30431 7.99997L5.913 7.30431V7.99997L5.21738 8.34778L6.60866 9.04344L6.26085 9.73909H7.65216V10.7826H8.34778V9.73909H9.7391L9.39128 9.04344Z" fill="#D80027"/>
</svg>
