<svg width="16" height="16" viewBox="0 0 16 16" fill="none" xmlns="http://www.w3.org/2000/svg">
<path d="M8 16C12.4183 16 16 12.4183 16 8C16 3.58172 12.4183 0 8 0C3.58172 0 0 3.58172 0 8C0 12.4183 3.58172 16 8 16Z" fill="#D80027"/>
<path d="M4.37812 4.86875L5.06875 6.99375H7.30312L5.49687 8.30938L6.1875 10.4344L4.37812 9.12188L2.56875 10.4344L3.2625 8.30938L1.45312 6.99375H3.6875L4.37812 4.86875Z" fill="#FFDA44"/>
<path d="M9.48434 12.3906L8.95622 11.7406L8.17498 12.0438L8.6281 11.3406L8.09998 10.6875L8.90935 10.9031L9.36559 10.2L9.40934 11.0375L10.2218 11.2531L9.43747 11.5531L9.48434 12.3906Z" fill="#FFDA44"/>
<path d="M10.5344 10.4844L10.7844 9.68438L10.1 9.2L10.9375 9.1875L11.1844 8.3875L11.4563 9.18125L12.2938 9.17188L11.6219 9.67188L11.8906 10.4656L11.2063 9.98125L10.5344 10.4844Z" fill="#FFDA44"/>
<path d="M11.95 5.87188L11.5812 6.625L12.1812 7.20938L11.3531 7.09063L10.9844 7.84063L10.8406 7.01563L10.0094 6.89688L10.7531 6.50625L10.6094 5.67813L11.2094 6.2625L11.95 5.87188Z" fill="#FFDA44"/>
<path d="M9.50623 3.59063L9.44373 4.425L10.2219 4.74063L9.40623 4.94063L9.34686 5.77813L8.90623 5.06563L8.09061 5.26563L8.63123 4.625L8.18748 3.91563L8.96561 4.23125L9.50623 3.59063Z" fill="#FFDA44"/>
</svg>
