<svg width="16" height="16" viewBox="0 0 16 16" fill="none" xmlns="http://www.w3.org/2000/svg">
<g clip-path="url(#clip0)">
<path d="M8.00047 16.0002C12.4186 16.0002 16.0001 12.4186 16.0001 8.00052C16.0001 3.58243 12.4186 0.000854492 8.00047 0.000854492C3.58239 0.000854492 0.000823975 3.58243 0.000823975 8.00052C0.000823975 12.4186 3.58239 16.0002 8.00047 16.0002Z" fill="white"/>
<path d="M15.5426 5.33267H10.6137C10.8277 7.04161 10.829 8.9246 10.6177 10.6357H15.5533C15.8412 9.81019 15.9998 8.92372 15.9998 8.00009C15.9999 7.06431 15.8377 6.16696 15.5426 5.33267Z" fill="#D32027"/>
<path d="M10.6137 5.33268H15.5426C15.5418 5.33015 15.541 5.32802 15.5401 5.32573C14.5162 2.43878 11.8826 0.314783 8.71829 0.0328369C9.94281 0.704075 10.3004 2.83074 10.6137 5.33268Z" fill="#0B0B0B"/>
<path d="M8.71844 15.9668C11.8884 15.6843 14.5258 13.553 15.5457 10.6584C15.5483 10.6507 15.5506 10.6431 15.5534 10.6356H10.6177C10.3071 13.1511 9.948 15.2928 8.71844 15.9668Z" fill="#F3C515"/>
<path d="M0 8.00006C0 8.92383 0.158521 9.81016 0.446512 10.6356H11.0296C11.2409 8.92443 11.2396 7.04158 11.0256 5.33264H0.457153C0.162067 6.16696 0 7.06431 0 8.00006Z" fill="#DB2727"/>
<path d="M0.459534 5.32572C0.458656 5.32799 0.457879 5.33015 0.457001 5.33268H11.0256C10.7123 2.83074 9.9428 0.704104 8.71844 0.0328661C8.48156 0.0118899 8.24207 0 7.99981 0C4.51969 0 1.55999 2.22267 0.459534 5.32572Z" fill="#151515"/>
<path d="M11.0296 10.6356H0.446503C0.449171 10.6431 0.451569 10.6507 0.454204 10.6584C1.55037 13.7694 4.51399 15.9999 7.99979 15.9999C8.24208 15.9999 8.48156 15.988 8.71838 15.9668C9.94797 15.2928 10.719 13.1511 11.0296 10.6356Z" fill="#F8D12E"/>
</g>
<defs>
<clipPath id="clip0">
<rect width="16" height="16" fill="white"/>
</clipPath>
</defs>
</svg>
