<svg width="16" height="16" viewBox="0 0 16 16" fill="none" xmlns="http://www.w3.org/2000/svg">
<g clip-path="url(#clip0)">
<path d="M8 16C12.4183 16 16 12.4183 16 8C16 3.58172 12.4183 0 8 0C3.58172 0 0 3.58172 0 8C0 12.4183 3.58172 16 8 16Z" fill="#F0F0F0"/>
<path d="M7.99989 0C4.8282 0 2.0877 1.84578 0.793701 4.52175H15.206C13.9121 1.84578 11.1715 0 7.99989 0Z" fill="#FF9811"/>
<path d="M7.99989 16C11.1715 16 13.9121 14.1542 15.2061 11.4783H0.793701C2.0877 14.1542 4.8282 16 7.99989 16Z" fill="#6DA544"/>
<path d="M7.99997 10.7826C9.53675 10.7826 10.7826 9.53679 10.7826 8C10.7826 6.46322 9.53675 5.21741 7.99997 5.21741C6.46319 5.21741 5.21738 6.46322 5.21738 8C5.21738 9.53679 6.46319 10.7826 7.99997 10.7826Z" fill="#0052B4"/>
<path d="M8.0001 9.7391C8.96059 9.7391 9.73922 8.96047 9.73922 7.99998C9.73922 7.03949 8.96059 6.26086 8.0001 6.26086C7.03962 6.26086 6.26099 7.03949 6.26099 7.99998C6.26099 8.96047 7.03962 9.7391 8.0001 9.7391Z" fill="#F0F0F0"/>
<path d="M7.9999 5.85396L8.53643 7.07077L9.85843 6.92699L9.07293 8.00001L9.85843 9.07304L8.53643 8.92926L7.9999 10.1461L7.46336 8.92926L6.14136 9.07301L6.92686 8.00001L6.14136 6.92699L7.46336 7.07077L7.9999 5.85396Z" fill="#0052B4"/>
</g>
<defs>
<clipPath id="clip0">
<rect width="16" height="16" fill="white"/>
</clipPath>
</defs>
</svg>
