<svg width="16" height="16" viewBox="0 0 16 16" fill="none" xmlns="http://www.w3.org/2000/svg">
<g clip-path="url(#clip0)">
<path d="M8 16C12.4183 16 16 12.4183 16 8C16 3.58172 12.4183 0 8 0C3.58172 0 0 3.58172 0 8C0 12.4183 3.58172 16 8 16Z" fill="#F0F0F0"/>
<path d="M16 8.00001C16 4.82832 14.1542 2.08782 11.4783 0.793823V15.2062C14.1542 13.9122 16 11.1717 16 8.00001Z" fill="#D80027"/>
<path d="M0 8.00001C0 11.1717 1.84578 13.9122 4.52175 15.2062V0.793823C1.84578 2.08782 0 4.82832 0 8.00001Z" fill="#6DA544"/>
<path d="M5.91299 8.00003C5.91299 9.15262 6.84737 10.087 7.99997 10.087C9.15257 10.087 10.0869 9.15262 10.0869 8.00003V7.30438H5.91299V8.00003Z" fill="#6DA544"/>
<path d="M10.7825 6.60868H8.69556C8.69556 6.22449 8.38409 5.91302 7.9999 5.91302C7.61572 5.91302 7.30425 6.22449 7.30425 6.60868H5.21729C5.21729 6.99289 5.55194 7.30433 5.9361 7.30433H5.91294C5.91294 7.68855 6.22438 7.99998 6.60859 7.99998C6.60859 8.3842 6.92003 8.69563 7.30425 8.69563H8.69556C9.07978 8.69563 9.39121 8.3842 9.39121 7.99998C9.77543 7.99998 10.0869 7.68855 10.0869 7.30433H10.0637C10.4479 7.30433 10.7825 6.99289 10.7825 6.60868Z" fill="#FF9811"/>
</g>
<defs>
<clipPath id="clip0">
<rect width="16" height="16" fill="white"/>
</clipPath>
</defs>
</svg>
