<svg width="16" height="16" viewBox="0 0 16 16" fill="none" xmlns="http://www.w3.org/2000/svg">
<path d="M8 16C12.4183 16 16 12.4183 16 8C16 3.58172 12.4183 0 8 0C3.58172 0 0 3.58172 0 8C0 12.4183 3.58172 16 8 16Z" fill="#6DA544"/>
<path d="M4.52179 9.56519C4.52179 10.1415 4.98898 10.6087 5.56526 10.6087H8.6957C8.6957 11.0889 9.08502 11.4782 9.56527 11.4782H10.6087C11.089 11.4782 11.4783 11.0889 11.4783 10.6087V9.56519H4.52179Z" fill="#F0F0F0"/>
<path d="M11.5652 4.52179V6.95656C11.5652 7.34015 11.2532 7.65222 10.8696 7.65222V8.69568C11.8285 8.69568 12.6087 7.9155 12.6087 6.95656V4.52179H11.5652Z" fill="#F0F0F0"/>
<path d="M4.08698 6.95748C4.08698 7.34107 3.77492 7.65313 3.39133 7.65313V8.6966C4.3503 8.6966 5.13045 7.91641 5.13045 6.95748V4.52271H4.08698V6.95748Z" fill="#F0F0F0"/>
<path d="M10 4.52179H11.0435V6.95657H10V4.52179Z" fill="#F0F0F0"/>
<path d="M8.43478 5.91304C8.43478 6.00895 8.35675 6.08695 8.26088 6.08695C8.165 6.08695 8.08697 6.00892 8.08697 5.91304V4.52173H7.0435V5.91304C7.0435 6.00895 6.96547 6.08695 6.8696 6.08695C6.77372 6.08695 6.69569 6.00892 6.69569 5.91304V4.52173H5.65219V5.91304C5.65219 6.58432 6.19832 7.13045 6.8696 7.13045C7.12813 7.13045 7.36788 7.0492 7.56525 6.9112C7.7626 7.04917 8.00238 7.13045 8.26091 7.13045C8.31297 7.13045 8.36416 7.12679 8.4145 7.12038C8.34057 7.42504 8.06619 7.65217 7.73916 7.65217V8.69563C8.69813 8.69563 9.47828 7.91545 9.47828 6.95651V5.91304V4.52173H8.43482V5.91304H8.43478Z" fill="#F0F0F0"/>
<path d="M5.65219 7.65219H7.21741V8.69566H5.65219V7.65219Z" fill="#F0F0F0"/>
</svg>
