<svg width="16" height="16" viewBox="0 0 16 16" fill="none" xmlns="http://www.w3.org/2000/svg">
<path d="M8 16C12.4183 16 16 12.4183 16 8C16 3.58172 12.4183 0 8 0C3.58172 0 0 3.58172 0 8C0 12.4183 3.58172 16 8 16Z" fill="#F0F0F0"/>
<path d="M10.7826 8C10.7826 8.69566 9.53678 10.4348 8 10.4348C6.46322 10.4348 5.21741 8.69566 5.21741 8C5.21741 6.46319 6.46322 5.21741 8 5.21741C9.53678 5.21741 10.7826 6.46319 10.7826 8Z" fill="#D80027"/>
<path d="M10.7826 8C10.7826 9.53681 9.53678 10.7826 8 10.7826C6.46322 10.7826 5.21741 9.53681 5.21741 8" fill="#0052B4"/>
<path d="M10.9492 10.4596L11.687 9.72186L12.1788 10.2137L11.441 10.9514L10.9492 10.4596Z" fill="black"/>
<path d="M9.7193 11.6892L10.457 10.9515L10.9489 11.4433L10.2111 12.181L9.7193 11.6892Z" fill="black"/>
<path d="M12.4248 11.935L13.1625 11.1973L13.6544 11.6891L12.9166 12.4268L12.4248 11.935Z" fill="black"/>
<path d="M11.1949 13.1649L11.9326 12.4271L12.4245 12.919L11.6867 13.6567L11.1949 13.1649Z" fill="black"/>
<path d="M11.687 11.1974L12.4247 10.4597L12.9165 10.9515L12.1788 11.6892L11.687 11.1974Z" fill="black"/>
<path d="M10.4574 12.4269L11.1951 11.6892L11.687 12.181L10.9492 12.9188L10.4574 12.4269Z" fill="black"/>
<path d="M12.428 5.54169L10.4607 3.57439L10.9526 3.08256L12.9199 5.04986L12.428 5.54169Z" fill="black"/>
<path d="M10.4604 5.05011L9.72265 4.31238L10.2145 3.82057L10.9522 4.5583L10.4604 5.05011Z" fill="black"/>
<path d="M11.6899 6.27997L10.9522 5.54224L11.444 5.05043L12.1817 5.78816L11.6899 6.27997Z" fill="black"/>
<path d="M11.9357 3.5744L11.198 2.83667L11.6898 2.34484L12.4275 3.08257L11.9357 3.5744Z" fill="black"/>
<path d="M13.166 4.80438L12.4282 4.06665L12.92 3.57482L13.6578 4.31255L13.166 4.80438Z" fill="black"/>
<path d="M2.83606 11.196L4.80335 13.1633L4.31152 13.6551L2.34423 11.6878L2.83606 11.196Z" fill="black"/>
<path d="M4.80325 11.6874L5.54098 12.4252L5.04918 12.917L4.31145 12.1792L4.80325 11.6874Z" fill="black"/>
<path d="M3.57361 10.4581L4.31134 11.1959L3.81951 11.6877L3.08178 10.95L3.57361 10.4581Z" fill="black"/>
<path d="M4.3114 9.72015L6.2787 11.6874L5.78687 12.1793L3.81957 10.212L4.3114 9.72015Z" fill="black"/>
<path d="M4.80316 2.83508L2.83587 4.80238L2.34404 4.31055L4.31133 2.34325L4.80316 2.83508Z" fill="black"/>
<path d="M5.54089 3.57275L3.5736 5.54005L3.08177 5.04822L5.04906 3.08092L5.54089 3.57275Z" fill="black"/>
<path d="M6.27933 4.31097L4.31203 6.27827L3.82023 5.78646L5.78752 3.81917L6.27933 4.31097Z" fill="black"/>
</svg>
