<svg width="16" height="16" viewBox="0 0 16 16" fill="none" xmlns="http://www.w3.org/2000/svg">
<path d="M8 16C12.4183 16 16 12.4183 16 8C16 3.58172 12.4183 0 8 0C3.58172 0 0 3.58172 0 8C0 12.4183 3.58172 16 8 16Z" fill="#D80027"/>
<path d="M7.67239 6.53699L8.3288 7.44152L9.39183 7.09683L8.73439 8.00058L9.39071 8.90508L8.32805 8.55908L7.67064 9.46283L7.67133 8.3453L6.60864 7.9993L7.67171 7.65461L7.67239 6.53699Z" fill="#F0F0F0"/>
<path d="M5.88104 10.2608C4.63241 10.2608 3.62016 9.2486 3.62016 7.99997C3.62016 6.75135 4.63241 5.7391 5.88104 5.7391C6.27035 5.7391 6.63666 5.83757 6.95648 6.01085C6.45476 5.52016 5.7686 5.21735 5.01148 5.21735C3.47466 5.21735 2.22888 6.46316 2.22888 7.99994C2.22888 9.53672 3.47469 10.7825 5.01148 10.7825C5.76866 10.7825 6.45479 10.4797 6.95648 9.98903C6.63666 10.1624 6.27035 10.2608 5.88104 10.2608Z" fill="#F0F0F0"/>
</svg>
