<svg width="16" height="16" viewBox="0 0 16 16" fill="none" xmlns="http://www.w3.org/2000/svg">
<path d="M8 16C12.4183 16 16 12.4183 16 8C16 3.58172 12.4183 0 8 0C3.58172 0 0 3.58172 0 8C0 12.4183 3.58172 16 8 16Z" fill="#F0F0F0"/>
<path d="M1.65376 3.12944C1.02535 3.94703 0.551511 4.88938 0.275604 5.9131H4.43742L1.65376 3.12944Z" fill="#0052B4"/>
<path d="M15.7244 5.9131C15.4485 4.88941 14.9746 3.94706 14.3462 3.12946L11.5627 5.9131H15.7244Z" fill="#0052B4"/>
<path d="M0.275604 10.087C0.551542 11.1107 1.02539 12.053 1.65376 12.8706L4.43732 10.087H0.275604Z" fill="#0052B4"/>
<path d="M12.8706 1.65378C12.053 1.02538 11.1107 0.551534 10.0869 0.275597V4.43738L12.8706 1.65378Z" fill="#0052B4"/>
<path d="M3.12946 14.3462C3.94705 14.9746 4.88939 15.4485 5.91308 15.7244V11.5627L3.12946 14.3462Z" fill="#0052B4"/>
<path d="M5.91305 0.275597C4.88936 0.551534 3.94702 1.02538 3.12946 1.65375L5.91305 4.43735V0.275597Z" fill="#0052B4"/>
<path d="M10.087 15.7244C11.1107 15.4485 12.053 14.9746 12.8706 14.3463L10.087 11.5627V15.7244Z" fill="#0052B4"/>
<path d="M11.5627 10.087L14.3462 12.8706C14.9746 12.0531 15.4485 11.1107 15.7244 10.087H11.5627Z" fill="#0052B4"/>
<path d="M15.9323 6.95653H9.04353H9.0435V0.0677188C8.70191 0.02325 8.35366 0 8 0C7.64628 0 7.29809 0.02325 6.95653 0.0677188V6.95647V6.9565H0.0677188C0.02325 7.29809 0 7.64634 0 8C0 8.35372 0.02325 8.70191 0.0677188 9.04347H6.95647H6.9565V15.9323C7.29809 15.9768 7.64628 16 8 16C8.35366 16 8.70191 15.9768 9.04347 15.9323V9.04353V9.0435H15.9323C15.9768 8.70191 16 8.35372 16 8C16 7.64634 15.9768 7.29809 15.9323 6.95653Z" fill="#D80027"/>
<path d="M10.087 10.087L13.6569 13.6569C13.821 13.4927 13.9777 13.3212 14.1271 13.1433L11.0708 10.087H10.087V10.087Z" fill="#D80027"/>
<path d="M5.91301 10.087H5.91295L2.34311 13.6568C2.50723 13.821 2.67883 13.9777 2.8567 14.1271L5.91301 11.0707V10.087Z" fill="#D80027"/>
<path d="M5.91305 5.91309V5.91303L2.34317 2.34312C2.17899 2.50724 2.02236 2.67884 1.87292 2.85671L4.92927 5.91306H5.91305V5.91309Z" fill="#D80027"/>
<path d="M10.087 5.9131L13.6569 2.34317C13.4928 2.17898 13.3212 2.02235 13.1433 1.87295L10.087 4.92929V5.9131Z" fill="#D80027"/>
</svg>
