<svg width="13" height="13" viewBox="0 0 13 13" fill="none" xmlns="http://www.w3.org/2000/svg">
<g clip-path="url(#clip0)">
<path d="M12.7321 9.36698L8.13937 1.68104C7.78859 1.10155 7.17863 0.750778 6.49999 0.750778C5.82135 0.750778 5.21137 1.10155 4.8606 1.68104L0.267859 9.36698C-0.0828362 9.96937 -0.0904788 10.6861 0.25265 11.2885C0.595754 11.8908 1.21333 12.2492 1.90723 12.2492H11.0927C11.7866 12.2492 12.4042 11.8908 12.7473 11.2885C13.0905 10.6861 13.0828 9.96937 12.7321 9.36698Z" fill="#E50027"/>
<path d="M12.7474 11.2885C12.4042 11.8908 11.7867 12.2492 11.0928 12.2492H6.5V0.750793C7.17862 0.750793 7.78863 1.10157 8.1394 1.68106L12.7321 9.36699C13.0828 9.96936 13.0905 10.6861 12.7474 11.2885Z" fill="#C1001F"/>
<path d="M1.90706 11.4868C1.48486 11.4868 1.12373 11.2768 0.915225 10.9112C0.706743 10.5452 0.71045 10.1219 0.927133 9.75031L5.5156 2.0706C5.72558 1.72361 6.09492 1.51324 6.49997 1.51324C6.90503 1.51324 7.27439 1.72358 7.48734 2.07583L12.0766 9.75625C12.2895 10.1219 12.2933 10.5452 12.0847 10.9111C11.8763 11.2768 11.5151 11.4867 11.0929 11.4867H1.90706V11.4868Z" fill="#FD003A"/>
<path d="M11.093 11.4868C11.5152 11.4868 11.8763 11.2768 12.0848 10.9112C12.2933 10.5452 12.2896 10.1219 12.0766 9.75628L7.48737 2.0758C7.27439 1.72361 6.90508 1.51322 6.5 1.51322V11.4868H11.093Z" fill="#E50027"/>
<path d="M7.26251 3.8618V6.91178C7.26251 7.33116 6.91938 7.67426 6.50003 7.67426C6.08067 7.67426 5.73752 7.33114 5.73752 6.91178V3.8618C5.73752 3.44243 6.08065 3.0993 6.50003 3.0993C6.9194 3.0993 7.26251 3.44243 7.26251 3.8618Z" fill="#E1E4FB"/>
<path d="M7.26248 3.8618V6.91178C7.26248 7.33116 6.91935 7.67426 6.5 7.67426V3.0993C6.91935 3.0993 7.26248 3.44243 7.26248 3.8618Z" fill="#C5C9F7"/>
<path d="M6.50003 8.43676C5.86715 8.43676 5.35629 8.94759 5.35629 9.58051C5.35629 10.2133 5.86712 10.7243 6.50003 10.7243C7.13294 10.7243 7.64377 10.2134 7.64377 9.58051C7.64377 8.94762 7.13289 8.43676 6.50003 8.43676Z" fill="#E1E4FB"/>
<path d="M7.64375 9.58048C7.64375 10.2133 7.13291 10.7242 6.5 10.7242V8.43676C7.13286 8.43676 7.64375 8.94762 7.64375 9.58048Z" fill="#C5C9F7"/>
</g>
<defs>
<clipPath id="clip0">
<rect width="13" height="13" fill="white"/>
</clipPath>
</defs>
</svg>
